<svg xmlns="http://www.w3.org/2000/svg" width="1200" height="900" viewBox="0 0 1200 900" fill="none" role="img" aria-labelledby="title desc"><title id="title">Hero illustration</title><desc id="desc">A warm home on a hillside with a seedling-tree whose branches hold family software nodes above calm network roots.</desc><rect width="1200" height="900" rx="48" fill="#EFE6D7"/><ellipse cx="620" cy="710" rx="560" ry="130" fill="#D8CBB6"/><path d="M0 690C160 640 260 650 400 680C520 706 710 742 1200 642V900H0V690Z" fill="#D0BFA5"/><path d="M92 640C194 570 260 534 356 506C452 478 574 488 702 568C813 637 884 644 1200 530V900H0V719C32 698 61 670 92 640Z" fill="#C0A27D"/><g transform="translate(116 364)"><rect x="74" y="112" width="230" height="140" rx="12" fill="#FFFDFC" stroke="#8A5A44" stroke-width="6"/><path d="M40 130L188 20L338 130" stroke="#365B43" stroke-width="16" stroke-linecap="round" stroke-linejoin="round"/><rect x="102" y="154" width="52" height="98" rx="8" fill="#8A5A44"/><rect x="188" y="152" width="76" height="48" rx="8" fill="#EFE6D7" stroke="#365B43" stroke-width="5"/><rect x="210" y="76" width="18" height="46" rx="5" fill="#B8832F"/></g><g transform="translate(580 200)"><path d="M40 560C96 494 140 434 173 362C201 302 222 210 232 110" stroke="#365B43" stroke-width="18" stroke-linecap="round"/><path d="M230 112C174 76 140 34 124 0C180 8 226 46 230 112Z" fill="#6F8A55"/><path d="M236 112C304 82 346 44 364 8C304 10 255 42 236 112Z" fill="#8A5A44"/><path d="M232 184C170 170 126 136 104 90" stroke="#365B43" stroke-width="10" stroke-linecap="round"/><path d="M232 198C300 190 352 162 396 126" stroke="#365B43" stroke-width="10" stroke-linecap="round"/><path d="M220 266C156 250 116 226 86 194" stroke="#365B43" stroke-width="10" stroke-linecap="round"/><path d="M246 274C314 266 362 246 434 204" stroke="#365B43" stroke-width="10" stroke-linecap="round"/><path d="M212 352C160 346 110 334 42 292" stroke="#365B43" stroke-width="10" stroke-linecap="round"/><path d="M254 356C336 352 416 326 498 282" stroke="#365B43" stroke-width="10" stroke-linecap="round"/><g fill="#FFFDFC" stroke="#365B43" stroke-width="6"><circle cx="108" cy="80" r="34"/><circle cx="398" cy="118" r="34"/><circle cx="68" cy="192" r="34"/><circle cx="472" cy="196" r="34"/><circle cx="24" cy="292" r="34"/><circle cx="548" cy="276" r="34"/></g><g fill="#365B43"><rect x="94" y="66" width="28" height="28" rx="7"/><rect x="384" y="104" width="28" height="28" rx="7"/><rect x="54" y="178" width="28" height="28" rx="7"/><rect x="458" y="182" width="28" height="28" rx="7"/><rect x="10" y="278" width="28" height="28" rx="7"/><rect x="534" y="262" width="28" height="28" rx="7"/></g><g stroke="#8A5A44" stroke-width="8" stroke-linecap="round"><path d="M64 586C106 634 132 666 158 706"/><path d="M114 574C164 626 202 674 232 730"/><path d="M170 560C224 620 270 678 320 738"/><path d="M224 548C286 608 352 664 404 718"/><path d="M266 540C324 588 414 646 500 694"/></g></g></svg>