<svg xmlns="http://www.w3.org/2000/svg" width="1024" height="1024" viewBox="0 0 1024 1024" fill="none" role="img" aria-labelledby="title desc"><title id="title">The Sovereign Home logomark light</title><desc id="desc">An arched shelter enclosing a seedling above a hearth base.</desc><rect width="1024" height="1024" rx="280" fill="#F6F1E7"/><rect x="152" y="152" width="720" height="720" rx="220" fill="#EFE6D7"/><path d="M280 670C280 466.76 444.76 302 648 302C851.24 302 1016 466.76 1016 670" stroke="#365B43" stroke-width="46" stroke-linecap="round" transform="translate(-136 -64)"/><path d="M512 700V462" stroke="#365B43" stroke-width="42" stroke-linecap="round"/><path d="M512 530C412 514 343 449 329 356C421 363 490 420 512 530Z" fill="#6F8A55"/><path d="M512 489C631 474 700 405 714 312C615 326 544 390 512 489Z" fill="#8A5A44"/><rect x="356" y="700" width="312" height="54" rx="27" fill="#8A5A44"/><circle cx="748" cy="360" r="34" fill="#B8832F"/></svg>