<svg xmlns="http://www.w3.org/2000/svg" width="640" height="360" viewBox="0 0 640 360" fill="none" role="img" aria-labelledby="title desc"><title id="title">Your data your home illustration</title><desc id="desc">A home outline cradling a folder and seedling to symbolize data staying at home.</desc><rect width="640" height="360" rx="28" fill="#EFE6D7"/><path d="M120 214L320 74L520 214" stroke="#365B43" stroke-width="14" stroke-linecap="round" stroke-linejoin="round"/><rect x="164" y="198" width="312" height="106" rx="18" fill="#FFFDFC" stroke="#8A5A44" stroke-width="8"/><path d="M226 164H302L330 190H414C430 190 444 203 444 220V246C444 263 430 276 414 276H226C209 276 196 263 196 246V194C196 177 209 164 226 164Z" fill="#EFE6D7" stroke="#365B43" stroke-width="8"/><path d="M320 254V202" stroke="#365B43" stroke-width="8" stroke-linecap="round"/><path d="M320 218C292 214 272 198 268 174C294 176 314 190 320 218Z" fill="#6F8A55"/><path d="M320 210C352 206 372 192 378 168C350 170 330 186 320 210Z" fill="#8A5A44"/></svg>